<?xml version="1.0" encoding="UTF-8" standalone="no"?>
<svg
   xmlns:dc="http://purl.org/dc/elements/1.1/"
   xmlns:cc="http://creativecommons.org/ns#"
   xmlns:rdf="http://www.w3.org/1999/02/22-rdf-syntax-ns#"
   xmlns:svg="http://www.w3.org/2000/svg"
   xmlns="http://www.w3.org/2000/svg"
   xmlns:sodipodi="http://sodipodi.sourceforge.net/DTD/sodipodi-0.dtd"
   xmlns:inkscape="http://www.inkscape.org/namespaces/inkscape"
   inkscape:version="1.0 (4035a4fb49, 2020-05-01)"
   sodipodi:docname="white_logo.svg"
   id="svg21"
   version="1.1"
   height="20"
   width="139">
  <metadata
     id="metadata25">
    <rdf:RDF>
      <cc:Work
         rdf:about="">
        <dc:format>image/svg+xml</dc:format>
        <dc:type
           rdf:resource="http://purl.org/dc/dcmitype/StillImage" />
        <dc:title></dc:title>
      </cc:Work>
    </rdf:RDF>
  </metadata>
  <sodipodi:namedview
     inkscape:current-layer="svg21"
     inkscape:window-maximized="1"
     inkscape:window-y="-8"
     inkscape:window-x="-8"
     inkscape:cy="9.9986207"
     inkscape:cx="84.754605"
     inkscape:zoom="8.3956835"
     showgrid="false"
     id="namedview23"
     inkscape:window-height="706"
     inkscape:window-width="1366"
     inkscape:pageshadow="2"
     inkscape:pageopacity="0"
     guidetolerance="10"
     gridtolerance="10"
     objecttolerance="10"
     borderopacity="1"
     bordercolor="#666666"
     pagecolor="#ffffff" />
  <defs
     id="defs7">
    <linearGradient
       y2="100%"
       y1="0%"
       x2="17.503%"
       x1="72.195%"
       id="a">
      <stop
         id="stop2"
         stop-color="#33D35E"
         offset="0%" />
      <stop
         id="stop4"
         stop-color="#2AB6D9"
         offset="100%" />
    </linearGradient>
  </defs>
  <g
     id="g19"
     fill-rule="evenodd"
     fill="none">
    <path
       id="path9"
       d="M37.754 15.847c2.852 0 5.152-1.622 5.952-4.216h-3.897c-.376.665-1.14 1.066-2.055 1.066-1.237 0-2.065-.674-2.32-1.978h8.44c.051-.352.081-.694.081-1.037 0-3.335-2.537-5.95-6.201-5.95-3.568 0-6.175 2.564-6.175 6.049 0 3.473 2.628 6.066 6.175 6.066zm2.344-7.297h-4.596c.317-1.129 1.11-1.749 2.252-1.749 1.181 0 2 .613 2.344 1.75zm10.946 7.296c1.32 0 2.5-.434 3.43-1.188l.336.804h3.027V4.093h-2.919l-.4.88c-.94-.775-2.135-1.222-3.474-1.222-3.476 0-5.961 2.505-5.961 6.026 0 3.533 2.485 6.07 5.961 6.07zm.524-3.467c-1.467 0-2.545-1.108-2.545-2.593 0-1.475 1.069-2.583 2.545-2.583 1.466 0 2.544 1.108 2.544 2.583 0 1.485-1.078 2.593-2.544 2.593zm13.123 3.467c3.02 0 5.025-1.554 5.025-3.93 0-2.883-2.387-3.256-4.183-3.575-1.08-.193-1.95-.344-1.95-.99 0-.527.422-.838 1.05-.838.71 0 1.197.337 1.197 1.063h3.667c-.044-2.303-1.92-3.843-4.816-3.843-2.912 0-4.854 1.47-4.854 3.75 0 2.757 2.337 3.289 4.1 3.574 1.092.181 1.952.368 1.952 1.024 0 .587-.543.88-1.116.88-.742 0-1.32-.383-1.32-1.214h-3.77c.036 2.463 1.919 4.1 5.018 4.1zm8.1 3.858c2.936 0 4.344-1.257 5.877-4.736l4.764-10.863h-4.206l-2.249 6.263-2.412-6.263H70.31l4.698 10.43c-.53 1.414-.983 1.804-2.48 1.804H71.45v3.365h1.341zm18.504-3.858c3.5 0 5.973-2.515 5.973-6.048S94.796 3.75 91.295 3.75a5.332 5.332 0 00-2.825.784V0H84.6v15.474h2.897l.37-.844c.923.771 2.102 1.216 3.428 1.216zm-.523-3.467c-1.467 0-2.545-1.108-2.545-2.58 0-1.486 1.078-2.594 2.545-2.594 1.466 0 2.544 1.108 2.544 2.593 0 1.473-1.087 2.58-2.544 2.58zm13.598 3.467c1.32 0 2.5-.434 3.43-1.188l.336.804h3.027V4.093h-2.918l-.401.88c-.939-.775-2.135-1.222-3.474-1.222-3.476 0-5.96 2.505-5.96 6.026 0 3.533 2.484 6.07 5.96 6.07zm.524-3.467c-1.467 0-2.545-1.108-2.545-2.593 0-1.475 1.07-2.583 2.545-2.583 1.467 0 2.545 1.108 2.545 2.583 0 1.485-1.078 2.593-2.545 2.593zm12.653 3.095V9.403c0-1.447.702-2.3 1.923-2.3.986 0 1.483.657 1.483 1.98v6.39h3.915V8.543c0-2.897-1.733-4.773-4.373-4.773-1.47 0-2.733.565-3.58 1.508l-.537-1.172h-2.747v11.369h3.916zm13.748 0v-4.808l2.848 4.808h4.616l-3.902-5.95 3.543-5.419h-4.397l-2.708 4.454V0h-3.916v15.474h3.916z"
       fill-rule="nonzero"
       fill="#2D314D" />
    <g
       id="g17"
       fill="url(#a)">
      <path
         id="path11"
         d="M10.802 0L0 19.704h5.986L16.789 0z" />
      <path
         id="path13"
         d="M18.171 0L7.368 19.704h5.986L24.157 0z"
         opacity=".5" />
      <path
         id="path15"
         d="M25.539 0L14.737 19.704h5.986L31.525 0z"
         opacity=".15" />
    </g>
  </g>
  <path
     id="path27"
     d="m 36.772476,15.701028 c -3.329962,-0.482731 -5.567908,-3.519975 -5.049698,-6.8532306 0.551497,-3.5473672 3.967329,-5.7217856 7.631604,-4.8580546 2.729876,0.6434777 4.632812,3.1127777 4.513003,5.8561923 l -0.03534,0.8091639 -4.213167,0.03132 -4.213166,0.03132 0.07512,0.375617 c 0.186191,0.930957 1.182615,1.646317 2.27666,1.634476 0.780596,-0.0084 1.293879,-0.204355 1.779519,-0.679195 l 0.396108,-0.387298 1.853489,0.03287 1.853488,0.03287 -0.347837,0.724425 c -1.120422,2.333454 -3.760865,3.649476 -6.519789,3.249525 z M 39.87061,7.9483309 c -0.500378,-0.8856818 -1.109937,-1.1960314 -2.243289,-1.142144 -0.705717,0.033555 -0.916736,0.095015 -1.281519,0.3732486 -0.360762,0.2751665 -0.910926,1.0765987 -0.910926,1.3269591 0,0.035365 1.077153,0.0643 2.393673,0.0643 h 2.393673 z"
     style="fill:#2d314d;fill-opacity:1;stroke:#ffffff;stroke-width:0.119109;stroke-opacity:1" />
  <path
     id="path852"
     d="M 36.079471,15.426059 C 34.143532,14.892012 32.489358,13.21366 31.964206,11.250643 31.618152,9.9570966 31.835334,8.1858917 32.486758,6.9890105 c 1.811783,-3.3288419 6.538433,-4.0914482 9.362358,-1.51054 1.263173,1.1544691 1.863823,2.4998767 1.863823,4.1748149 v 0.9422586 h -4.225385 -4.225386 l 0.0703,0.387104 c 0.320427,1.764419 2.800979,2.481163 4.203072,1.214457 l 0.454343,-0.410473 h 1.749404 1.749404 l -0.394089,0.741088 c -0.72305,1.359706 -2.057022,2.409115 -3.661422,2.880371 -0.773956,0.227332 -2.560067,0.236901 -3.353709,0.01797 z m 4.298421,-6.804378 c 0,-0.1706758 -0.620596,-1.1014079 -0.919122,-1.3784431 -0.597365,-0.5543604 -1.587447,-0.7242903 -2.593196,-0.4450759 -0.710519,0.1972529 -1.618987,1.2652563 -1.450263,1.7049425 0.06183,0.1611368 0.406461,0.1866984 2.517112,0.1866984 1.345008,0 2.445469,-0.030655 2.445469,-0.068122 z"
     style="fill:#2d314d;fill-opacity:1;stroke:#ffffff;stroke-width:0.119109;stroke-opacity:1" />
  <path
     id="path854"
     d="m 50.190934,15.720758 c -2.631915,-0.400387 -4.490335,-2.213481 -4.938405,-4.817962 -0.582969,-3.3886043 1.466213,-6.4396446 4.69033,-6.9834622 1.456272,-0.2456321 2.985655,0.050125 4.072244,0.7875048 0.493273,0.3347439 0.566507,0.3173994 0.773898,-0.183289 l 0.149068,-0.3598821 h 1.414856 1.414856 v 5.5981148 5.5981147 h -1.477209 -1.477208 l -0.124565,-0.357326 c -0.06851,-0.19653 -0.161624,-0.357327 -0.206919,-0.357327 -0.04529,0 -0.339791,0.158403 -0.654436,0.352006 -0.991472,0.610059 -2.460726,0.902377 -3.63651,0.723508 z m 2.560521,-3.569782 c 2.036247,-1.038816 1.824454,-4.1521663 -0.331568,-4.8740297 -1.727973,-0.5785472 -3.469182,0.7114004 -3.465495,2.567357 0.0018,0.9254517 0.629603,1.9330237 1.459164,2.3419817 0.554526,0.273371 1.768784,0.255032 2.337899,-0.03531 z"
     style="fill:#2d314d;fill-opacity:1;stroke:#ffffff;stroke-width:0.119109;stroke-opacity:1" />
  <path
     id="path856"
     d="M 63.663668,15.708327 C 62.339167,15.513551 61.177622,14.92062 60.576401,14.132379 60.134244,13.552681 59.798189,12.735688 59.795247,12.23329 l -0.0026,-0.446658 h 1.77372 1.77372 l 0.07731,0.30803 c 0.144353,0.575147 0.584093,0.883059 1.261128,0.883059 0.755874,0 1.008599,-0.130186 1.174044,-0.604783 C 66.115871,11.617586 65.707321,11.338547 63.782776,10.95928 61.63818,10.536649 60.735519,10.010525 60.19561,8.8684662 59.614157,7.6385301 59.91971,6.055976 60.927632,5.0770946 c 1.721663,-1.672058 5.508045,-1.7084097 7.373194,-0.070787 0.458825,0.4028543 0.964807,1.3550595 1.087067,2.0457494 l 0.07906,0.4466581 h -1.799888 c -1.44147,0 -1.799888,-0.032379 -1.799888,-0.1626004 0,-0.3125544 -0.487297,-0.7815135 -0.890714,-0.857195 -1.262999,-0.2369401 -1.996811,0.9893074 -0.922165,1.540997 0.17821,0.091487 0.940407,0.2832769 1.69377,0.4261989 2.380348,0.4515801 3.364082,1.0954308 3.76128,2.4617434 0.318933,1.097092 0.09439,2.273994 -0.610068,3.197589 -0.916834,1.202031 -3.202667,1.901837 -5.235616,1.602879 z"
     style="fill:#2d314d;fill-opacity:1;stroke:#ffffff;stroke-width:0.119109;stroke-opacity:1" />
  <path
     id="path858"
     d="m 71.465296,18.056367 v -1.591448 l 1.046126,-0.05965 c 1.22273,-0.06972 1.691743,-0.270343 2.103516,-0.899809 C 75.16962,14.657532 75.228069,14.851084 72.772273,9.4035444 71.518791,6.6230238 70.467574,4.3065654 70.436236,4.255859 70.404896,4.205153 71.310173,4.163665 72.44796,4.163665 h 2.068702 l 1.175927,3.0670523 c 0.64676,1.6868787 1.195894,3.0922997 1.220297,3.1231577 0.08829,0.111649 0.25791,-0.310058 1.297276,-3.2253415 l 1.056762,-2.9640745 1.995073,-3.97e-4 c 1.09729,-2.183e-4 1.995039,0.039802 1.994997,0.088935 -1.97e-4,0.2353994 -5.181287,11.848601 -5.602198,12.557099 -1.214571,2.044426 -2.66638,2.837717 -5.193333,2.837717 h -0.996167 z"
     style="fill:#2d314d;fill-opacity:1;stroke:#ffffff;stroke-width:0.119109;stroke-opacity:1" />
  <path
     id="path860"
     d="m 90.403599,15.700266 c -0.632907,-0.104551 -1.811489,-0.60735 -2.341946,-0.999105 -0.248115,-0.183238 -0.26316,-0.174664 -0.411031,0.234268 l -0.15349,0.424468 H 86.091754 84.686375 V 7.7369323 0.11396744 h 1.846187 1.846187 V 2.3704456 4.6269238 L 89.040666,4.323888 c 2.081377,-0.9528858 4.680932,-0.5066903 6.355883,1.0909427 1.177601,1.1232404 1.790754,2.6305059 1.794493,4.4112586 0.0065,3.0735527 -2.042289,5.4644547 -5.039206,5.8808037 -0.512442,0.07119 -0.968033,0.123173 -1.012425,0.115516 -0.04439,-0.0077 -0.375508,-0.06262 -0.735812,-0.122143 z m 1.497838,-3.508996 c 1.602613,-0.76049 1.975109,-3.0110444 0.708077,-4.278076 -1.147226,-1.1472261 -3.13924,-0.9666155 -3.981165,0.3609618 -0.885703,1.3966088 -0.435389,3.1558182 1.001043,3.9106992 0.477382,0.250876 1.749313,0.254468 2.272045,0.0064 z"
     style="fill:#2d314d;fill-opacity:1;stroke:#ffffff;stroke-width:0.119109;stroke-opacity:1" />
  <path
     id="path864"
     d="m 90.310335,15.549607 c -0.34609,-0.08655 -1.023553,-0.352243 -1.505473,-0.590421 -0.48192,-0.238178 -0.93853,-0.433051 -1.014688,-0.433051 -0.07616,0 -0.194524,0.160797 -0.263035,0.357327 l -0.124564,0.357326 H 86.104029 84.805484 V 7.7369323 0.23307626 h 1.727078 1.727078 V 2.5088873 c 0,2.1201952 0.01425,2.2700381 0.208441,2.1913854 1.893122,-0.7667805 2.842321,-0.9075563 4.110318,-0.6096017 1.107821,0.2603164 1.916932,0.6972628 2.733604,1.4762354 2.775278,2.6471667 2.11984,7.6808396 -1.221118,9.3780106 -1.203781,0.611509 -2.758775,0.860226 -3.78055,0.60469 z m 2.029598,-3.478651 c 1.295195,-0.910297 1.494876,-2.9942053 0.402133,-4.1967291 -0.955045,-1.0509913 -2.786245,-1.095142 -3.82985,-0.092339 -1.136928,1.0924775 -1.127123,2.9387481 0.02139,4.0279511 0.571365,0.54186 1.073265,0.702043 2.043082,0.652058 0.726785,-0.03746 0.952324,-0.102137 1.363243,-0.390941 z"
     style="fill:#2d314d;fill-opacity:1;stroke:#ffffff;stroke-width:0.119109;stroke-opacity:1" />
  <path
     id="path866"
     d="m 103.3998,15.710925 c -1.74684,-0.234115 -3.526255,-1.521761 -4.270834,-3.090531 -0.944398,-1.989771 -0.798046,-4.6007356 0.352358,-6.2861662 1.724206,-2.5260997 5.361396,-3.2861413 7.848736,-1.6401016 0.25208,0.1668167 0.489,0.3033031 0.52651,0.3033031 0.0375,0 0.14656,-0.1875964 0.24237,-0.4168809 l 0.17418,-0.4168809 h 1.42771 1.4277 v 5.5981148 5.5981147 h -1.47441 -1.47441 l -0.148,-0.357326 c -0.0814,-0.19653 -0.16647,-0.357327 -0.18902,-0.357327 -0.0226,0 -0.37784,0.18338 -0.78953,0.407511 -1.17274,0.638454 -2.29368,0.840397 -3.65336,0.65817 z m 2.70113,-3.555375 c 0.56487,-0.289679 0.91657,-0.669471 1.16042,-1.253088 0.23739,-0.568142 0.24657,-1.6935277 0.0182,-2.2312653 -0.66105,-1.5565918 -2.80782,-2.0280407 -4.09372,-0.8990113 -1.35638,1.1909199 -1.10224,3.5816776 0.4631,4.3565046 0.67361,0.333428 1.8295,0.346091 2.45199,0.02686 z"
     style="fill:#2d314d;fill-opacity:1;stroke:#ffffff;stroke-width:0.119109;stroke-opacity:1" />
  <path
     id="path868"
     d="M 113.74893,9.7617823 V 4.1636675 h 1.28984 1.28983 l 0.27439,0.5858202 0.27438,0.5858201 0.57949,-0.4580605 c 0.8948,-0.7072998 1.74933,-0.9885476 3.02172,-0.9945206 0.92414,-0.00434 1.17246,0.040592 1.80062,0.3257972 1.27405,0.5784677 2.14634,1.7413039 2.41749,3.2227345 0.0747,0.4080509 0.12936,2.2328757 0.12936,4.3176946 v 3.610944 h -1.8993 -1.8993 l -0.0362,-3.603042 c -0.0323,-3.2141527 -0.0596,-3.6458361 -0.25257,-3.9995286 -0.57634,-1.0562126 -2.28325,-0.9128389 -2.94788,0.2476115 -0.28566,0.4987662 -0.29052,0.5565027 -0.33056,3.9305801 l -0.0406,3.424379 h -1.83533 -1.83533 z"
     style="fill:#2d314d;fill-opacity:1;stroke:#ffffff;stroke-width:0.119109;stroke-opacity:1" />
  <path
     id="path870"
     d="M 127.44644,7.7369323 V 0.11396744 h 1.90575 1.90574 l 0.004,4.25814056 c 0.003,3.8471095 0.0214,4.2351457 0.18604,4.0199228 0.10024,-0.1310197 0.72504,-1.1360004 1.38846,-2.2332904 l 1.20621,-1.9950729 h 2.1172 2.1172 l -1.26371,1.9355184 c -0.69505,1.0645352 -1.47031,2.2407716 -1.72282,2.6138588 -0.2525,0.3730871 -0.4591,0.7313181 -0.4591,0.7960688 0,0.064751 0.83079,1.3801545 1.84619,2.9231205 1.0154,1.542966 1.84618,2.832903 1.84618,2.866528 0,0.03363 -0.98507,0.06114 -2.18904,0.06114 h -2.18905 l -1.41399,-2.408555 -1.414,-2.408557 -0.0322,2.408557 -0.0322,2.408555 h -1.90327 -1.90328 z"
     style="fill:#ffffff;fill-opacity:1;stroke:#ffffff;stroke-width:0.119109;stroke-opacity:1" />
  <path
     id="path872"
     d="M 113.81716,9.760403 V 4.281397 h 1.23446 1.23446 l 0.20423,0.5347579 c 0.11232,0.2941169 0.25105,0.5637013 0.30829,0.5990765 0.0572,0.035375 0.36121,-0.1330138 0.6755,-0.3741979 0.96123,-0.7376573 1.49756,-0.9202735 2.86516,-0.9755535 1.14395,-0.04624 1.2645,-0.028469 1.89311,0.2790813 0.89349,0.4371409 1.53272,1.1001559 1.9888,2.0627794 l 0.37534,0.7922225 0.037,4.0231488 0.037,4.023148 -1.76407,-0.033 -1.76408,-0.033 -0.0618,-3.573265 c -0.0469,-2.7079434 -0.10179,-3.6521816 -0.2268,-3.899144 -0.53583,-1.0585428 -2.21966,-1.0068114 -3.05933,0.09399 l -0.3444,0.4515184 -0.0787,2.6892426 c -0.0433,1.479083 -0.0835,3.051036 -0.0893,3.493227 l -0.0106,0.803985 h -1.72707 -1.72708 z"
     style="fill:#ffffff;fill-opacity:1;stroke:#ffffff;stroke-width:0.119109;stroke-opacity:1" />
  <path
     id="path874"
     d="m 103.52321,15.576831 c -1.514,-0.153362 -3.13065,-1.191102 -4.006831,-2.572011 C 98.433157,11.297602 98.369045,8.5211955 99.372873,6.7901976 100.93106,4.103261 104.362,3.1785102 107.09735,4.7082004 c 0.41739,0.23342 0.80675,0.3948261 0.86523,0.3586804 0.0585,-0.036146 0.17342,-0.2276666 0.2554,-0.4256018 l 0.14907,-0.359882 h 1.29575 1.29575 v 5.479006 5.479006 h -1.3553 -1.35531 l -0.14801,-0.357326 c -0.0814,-0.19653 -0.16983,-0.357327 -0.19651,-0.357327 -0.0267,0 -0.35516,0.153431 -0.72998,0.340958 -1.31002,0.655433 -2.29863,0.848028 -3.65023,0.711117 z m 2.94953,-3.510028 c 0.718,-0.498732 1.03165,-1.190668 1.03165,-2.2759091 0,-1.0755146 -0.18094,-1.5284679 -0.83378,-2.0872781 -1.38683,-1.1870775 -3.61927,-0.6843881 -4.24688,0.9562919 -0.29541,0.772243 -0.26766,1.7560253 0.0692,2.4518003 0.46671,0.964102 1.37094,1.419949 2.66966,1.345856 0.65864,-0.03758 0.9094,-0.112364 1.31019,-0.390761 z"
     style="fill:#ffffff;fill-opacity:1;stroke:#ffffff;stroke-width:0.119109;stroke-opacity:1" />
  <path
     id="path876"
     d="m 90.054947,15.335542 c -0.196529,-0.0678 -0.775987,-0.309246 -1.287683,-0.536541 -0.511697,-0.227297 -1.00589,-0.384281 -1.098208,-0.348856 -0.09232,0.03543 -0.202057,0.200703 -0.243866,0.367283 -0.07532,0.300116 -0.08728,0.302872 -1.313746,0.302872 H 84.873713 V 7.735553 0.35080574 h 1.591926 1.591926 l 0.05571,2.12315626 c 0.03064,1.1677359 0.09234,2.1824207 0.137105,2.2548548 0.05598,0.090581 0.406171,0.017431 1.121643,-0.2342967 2.478779,-0.8721197 4.930524,-0.1718452 6.403439,1.8289688 0.708285,0.9621364 1.022482,1.8477388 1.097606,3.0937338 0.170839,2.8335073 -1.395014,5.1195253 -4.001856,5.8423803 -0.855642,0.237262 -2.240432,0.274603 -2.816267,0.07594 z m 2.225677,-3.100622 c 1.42665,-0.801822 1.708245,-3.1842036 0.529671,-4.4811813 -0.587664,-0.6467029 -1.640464,-0.9395608 -2.63524,-0.7330459 -1.653337,0.3432313 -2.577661,2.0026026 -2.066279,3.7094412 0.149763,0.499865 0.798542,1.331367 1.212249,1.55367 0.744485,0.400044 2.203724,0.375941 2.959599,-0.04888 z"
     style="fill:#ffffff;fill-opacity:1;stroke:#ffffff;stroke-width:0.119109;stroke-opacity:1" />
  <path
     id="path878"
     d="m 71.533525,18.056158 v -1.471169 l 1.011906,-0.07141 c 1.196159,-0.08441 1.755549,-0.318896 2.151751,-0.90196 0.599673,-0.882499 0.549641,-1.042791 -2.269422,-7.2707283 l -1.810563,-3.9999383 1.793137,-0.033013 c 0.986226,-0.018157 1.850524,-0.010992 1.920663,0.015923 0.07014,0.026915 0.658554,1.4219444 1.307587,3.1000653 0.653182,1.688845 1.245286,3.0511293 1.326146,3.0511293 0.159945,0 0.358823,-0.4915044 1.566346,-3.8710371 l 0.808605,-2.2630677 1.8737,-0.032802 c 1.030535,-0.018041 1.8737,-0.00441 1.8737,0.030302 0,0.1650191 -4.211369,9.6232088 -5.242195,11.7732918 -1.137578,2.372744 -2.796768,3.415584 -5.434302,3.415584 h -0.877059 z"
     style="fill:#ffffff;fill-opacity:1;stroke:#ffffff;stroke-width:0.119109;stroke-opacity:1" />
  <path
     id="path880"
     d="M 63.785568,15.588148 C 62.882285,15.456977 61.857484,15.056669 61.266346,14.60409 60.721672,14.187084 60.051549,13.05894 59.928011,12.35102 l -0.07794,-0.446658 h 1.717586 1.717587 l 0.07145,0.357258 c 0.135952,0.679756 1.337205,1.068778 2.152789,0.697172 0.340997,-0.155368 0.603881,-0.800508 0.482295,-1.183591 -0.104398,-0.32893 -0.809936,-0.633115 -2.172362,-0.93659 -2.123793,-0.473067 -2.850548,-0.8821132 -3.417273,-1.9233727 -0.835627,-1.535323 -0.153826,-3.4966616 1.511347,-4.3476972 1.612133,-0.8239274 3.658016,-0.8551215 5.311225,-0.080981 0.809075,0.3788618 1.343437,0.9159191 1.735123,1.7438762 0.549446,1.1614341 0.564831,1.1477906 -1.294287,1.1477906 H 66.060636 L 65.871003,7.0115168 c -0.514998,-0.9958979 -2.436878,-0.8051511 -2.436878,0.2418608 0,0.7165397 0.312242,0.894668 2.322622,1.3250113 1.352776,0.2895763 1.947513,0.5016991 2.597567,0.9264662 1.402505,0.9164429 1.534102,3.3871289 0.250791,4.7085109 -0.995535,1.025071 -3.097941,1.624785 -4.819537,1.374782 z"
     style="fill:#ffffff;fill-opacity:1;stroke:#ffffff;stroke-width:0.119109;stroke-opacity:1" />
  <path
     id="path882"
     d="M 49.258842,15.373803 C 48.291283,15.06409 47.563625,14.594342 46.838965,13.811622 45.768312,12.655189 45.333384,11.481766 45.330997,9.7431721 45.32923,8.4559384 45.628085,7.4336122 46.300514,6.4266418 47.14971,5.1549599 48.297,4.4138786 49.933043,4.0802417 c 1.236546,-0.2521677 2.376625,-0.092211 3.555495,0.4988472 0.458569,0.229916 0.921057,0.4177887 1.027752,0.4174951 0.106694,-2.937e-4 0.260594,-0.161331 0.341999,-0.3578605 l 0.14801,-0.3573265 h 1.295746 1.295747 v 5.479006 5.479006 h -1.356839 c -1.354052,0 -1.356995,-6.19e-4 -1.432855,-0.302872 -0.113109,-0.45066 -0.333022,-0.465957 -1.039199,-0.07228 -0.350728,0.195521 -0.928811,0.440316 -1.284627,0.543987 -0.858028,0.249996 -2.38787,0.233662 -3.22543,-0.03444 z m 3.259112,-3.0026 c 0.601716,-0.167079 1.410179,-0.982567 1.598307,-1.612194 0.516297,-1.7279436 -0.392315,-3.3741109 -2.032163,-3.6817481 -1.65024,-0.309587 -3.182016,0.9585836 -3.203301,2.6520405 -0.02486,1.9781186 1.649004,3.1939556 3.637157,2.6419016 z"
     style="fill:#ffffff;fill-opacity:1;stroke:#ffffff;stroke-width:0.119109;stroke-opacity:1" />
  <path
     id="path884"
     d="m 36.304954,15.351314 c -1.373311,-0.270725 -3.112882,-1.684308 -3.802126,-3.089626 -1.367672,-2.7885816 -0.195953,-6.1798706 2.610464,-7.5554272 3.854412,-1.8892283 8.429659,0.7275835 8.429659,4.8213427 v 0.9474525 h -4.215703 -4.215702 l 0.11155,0.496472 c 0.224589,0.999571 0.837308,1.61296 1.886746,1.888806 0.911585,0.239612 2.099136,-0.07401 2.669864,-0.70508 0.209837,-0.232024 0.350455,-0.250892 1.869808,-0.250892 h 1.642908 l -0.380948,0.667758 c -0.754354,1.322295 -2.408715,2.504594 -3.900481,2.787502 -0.727806,0.138026 -1.983283,0.134171 -2.706039,-0.0083 z M 40.406398,8.620141 C 40.518833,8.3271387 39.626771,7.1367107 39.08711,6.8595948 38.196769,6.4024047 36.885137,6.4835586 36.169512,7.0401142 c -0.738596,0.5744207 -1.111373,1.5612501 -0.63663,1.6853134 0.114642,0.029959 1.241903,0.060689 2.505024,0.068288 1.987408,0.011957 2.306264,-0.011411 2.368492,-0.1735746 z"
     style="fill:#ffffff;fill-opacity:1;stroke:#ffffff;stroke-width:0.119109;stroke-opacity:1" />
</svg>
